# xmcd
#
# Track frame offsets: 
#        150
#        11437
#        22875
#        36455
#        48006
#        56692
#        65346
#        75120
#        94124
#        107409
#        118979
#        132089
#        142872
#        157554
#        167073
#        186382
#        201563
#        215762
#        228941
#        242447
#        251505
#        272600
#        286987
#        307092
#        321255
#
# Disc length: 4473 seconds
#
# Revision: 0
# Processed by: cddbd v1.5.2PL0 Copyright (c) Steve Scherf et al.
# Submitted via: ExactAudioCopy v0.99pb3
#
DISCID=51117719
DTITLE=Yves Duteil - Patrice Jania - Great singers collection - Yves D
DTITLE=uteil 30 ans de chansons
DYEAR=2002
DGENRE=Country
TTITLE0=Virages
TTITLE1=Marie merveille, Marie bonheur
TTITLE2=L'écritoire
TTITLE3=Tisserand
TTITLE4=J'attends
TTITLE5=La tarentelle
TTITLE6=Le petit pont de bois
TTITLE7=Prendre un enfant
TTITLE8=Le mur de la prison d'en face
TTITLE9=Mélancolie
TTITLE10=Trente ans
TTITLE11=L'opéra
TTITLE12=Les gens sans importance
TTITLE13=La statue d'ivoire
TTITLE14=Clémentine et Léon
TTITLE15=La langue de chez nous
TTITLE16=Le cirque
TTITLE17=Pour les enfants du monde entier
TTITLE18=Ton absence
TTITLE19=La rumeur
TTITLE20=Retour d'Asie
TTITLE21=Bientôt vingt ans
TTITLE22=Dreyfus
TTITLE23=La tibétaine
TTITLE24=Apprendre
EXTD=
EXTT0=
EXTT1=
EXTT2=
EXTT3=
EXTT4=
EXTT5=
EXTT6=
EXTT7=
EXTT8=
EXTT9=
EXTT10=
EXTT11=
EXTT12=
EXTT13=
EXTT14=
EXTT15=
EXTT16=
EXTT17=
EXTT18=
EXTT19=
EXTT20=
EXTT21=
EXTT22=
EXTT23=
EXTT24=
PLAYORDER=
